<svg xmlns="http://www.w3.org/2000/svg" width="1800" height="1320" viewBox="0 0 1800 1320" role="img" aria-label="行为验收用例 14：采用用户已提供的完整产品事实"><rect width="1800" height="1320" fill="#F4F1E9"/><rect x="0" y="0" width="1800" height="1320" rx="0" fill="#F4F1E9"/><text x="72" y="57" font-family="Consolas, monospace" font-size="19" font-weight="400" fill="#65716C">EVIDENCE REVIEW FILE · 14 / 14</text><text x="1500" y="57" font-family="Consolas, monospace" font-size="19" font-weight="400" fill="#65716C">UPDATED 2026-09-01</text><line x1="72" y1="78" x2="1728" y2="78" stroke="#1A2823" stroke-width="3"/><line x1="72" y1="86" x2="1728" y2="86" stroke="#C9D0C8" stroke-width="1"/><text x="72" y="162" font-family="Microsoft YaHei, PingFang SC, Noto Sans CJK SC, sans-serif" font-size="46" font-weight="700" fill="#1A2823">采用用户已提供的完整产品事实</text><text x="72" y="210" font-family="Microsoft YaHei, PingFang SC, Noto Sans CJK SC, sans-serif" font-size="26" font-weight="400" fill="#34433D">输入：每两粒含南非醉茄提取物280 mg、玉米须提取物800 mg、蒲公英根提取物500 mg；南非醉茄采用 Shoden®，标准化为35%。</text><rect x="1450" y="112" width="278" height="54" rx="0" fill="#E4F0EB"/><text x="1510" y="149" font-family="Microsoft YaHei, PingFang SC, Noto Sans CJK SC, sans-serif" font-size="24" font-weight="700" fill="#0B6657">通过</text><line x1="72" y1="250" x2="1728" y2="250" stroke="#C9D0C8" stroke-width="2"/><text x="72" y="311" font-family="Microsoft YaHei, PingFang SC, Noto Sans CJK SC, sans-serif" font-size="29" font-weight="700" fill="#0B6657">按 Shoden® 280 mg 审计，不把复方当成已验证</text><text x="72" y="372" font-family="Microsoft YaHei, PingFang SC, Noto Sans CJK SC, sans-serif" font-size="30" font-weight="400" fill="#1A2823">把每两粒用量、三种成分剂量、Shoden® 品牌原料和 35% 标准化全部纳入匹配；280 mg 应与相同 Shoden® 制剂的人体</text><text x="72" y="412" font-family="Microsoft YaHei, PingFang SC, Noto Sans CJK SC, sans-serif" font-size="30" font-weight="400" fill="#1A2823">研究比较，同时把单一原料证据与三成分成品配方证据分开。</text><line x1="72" y1="450" x2="1728" y2="450" stroke="#C9D0C8" stroke-width="2"/><text x="72" y="525" font-family="Microsoft YaHei, PingFang SC, Noto Sans CJK SC, sans-serif" font-size="33" font-weight="700" fill="#1A2823">证据与流程轨迹</text><text x="392" y="521" font-family="Microsoft YaHei, PingFang SC, Noto Sans CJK SC, sans-serif" font-size="22" font-weight="400" fill="#65716C">每一项都能回到仓库文件</text><line x1="72" y1="552" x2="486" y2="552" stroke="#1A2823" stroke-width="2"/><line x1="72" y1="790" x2="486" y2="790" stroke="#C9D0C8" stroke-width="2"/><text x="90" y="593" font-family="Consolas, monospace" font-size="19" font-weight="400" fill="#0B6657">01</text><text x="90" y="640" font-family="Microsoft YaHei, PingFang SC, Noto Sans CJK SC, sans-serif" font-size="24" font-weight="700" fill="#1A2823">已知产品事实</text><text x="90" y="699" font-family="Microsoft YaHei, PingFang SC, Noto Sans CJK SC, sans-serif" font-size="21" font-weight="400" fill="#34433D">每两粒：南非醉茄 280 mg、玉米须 800</text><text x="90" y="727" font-family="Microsoft YaHei, PingFang SC, Noto Sans CJK SC, sans-serif" font-size="21" font-weight="400" fill="#34433D">mg、蒲公英根 500 mg</text><line x1="486" y1="552" x2="900" y2="552" stroke="#1A2823" stroke-width="2"/><line x1="486" y1="790" x2="900" y2="790" stroke="#C9D0C8" stroke-width="2"/><line x1="486" y1="552" x2="486" y2="790" stroke="#C9D0C8" stroke-width="2"/><text x="504" y="593" font-family="Consolas, monospace" font-size="19" font-weight="400" fill="#0B6657">02</text><text x="504" y="640" font-family="Microsoft YaHei, PingFang SC, Noto Sans CJK SC, sans-serif" font-size="24" font-weight="700" fill="#1A2823">制剂匹配</text><text x="504" y="699" font-family="Microsoft YaHei, PingFang SC, Noto Sans CJK SC, sans-serif" font-size="21" font-weight="400" fill="#34433D">确认 Shoden® 和 35% 标准化，不再把</text><text x="504" y="727" font-family="Microsoft YaHei, PingFang SC, Noto Sans CJK SC, sans-serif" font-size="21" font-weight="400" fill="#34433D">剂量或原料身份列为未知</text><line x1="900" y1="552" x2="1314" y2="552" stroke="#1A2823" stroke-width="2"/><line x1="900" y1="790" x2="1314" y2="790" stroke="#C9D0C8" stroke-width="2"/><line x1="900" y1="552" x2="900" y2="790" stroke="#C9D0C8" stroke-width="2"/><text x="918" y="593" font-family="Consolas, monospace" font-size="19" font-weight="400" fill="#0B6657">03</text><text x="918" y="640" font-family="Microsoft YaHei, PingFang SC, Noto Sans CJK SC, sans-serif" font-size="24" font-weight="700" fill="#1A2823">剂量比较</text><text x="918" y="699" font-family="Microsoft YaHei, PingFang SC, Noto Sans CJK SC, sans-serif" font-size="21" font-weight="400" fill="#34433D">将 280 mg 与相同 Shoden® 制剂的人</text><text x="918" y="727" font-family="Microsoft YaHei, PingFang SC, Noto Sans CJK SC, sans-serif" font-size="21" font-weight="400" fill="#34433D">体研究剂量比较</text><line x1="1314" y1="552" x2="1728" y2="552" stroke="#1A2823" stroke-width="2"/><line x1="1314" y1="790" x2="1728" y2="790" stroke="#C9D0C8" stroke-width="2"/><line x1="1314" y1="552" x2="1314" y2="790" stroke="#C9D0C8" stroke-width="2"/><text x="1332" y="593" font-family="Consolas, monospace" font-size="19" font-weight="400" fill="#0B6657">04</text><text x="1332" y="640" font-family="Microsoft YaHei, PingFang SC, Noto Sans CJK SC, sans-serif" font-size="24" font-weight="700" fill="#1A2823">证据分层</text><text x="1332" y="699" font-family="Microsoft YaHei, PingFang SC, Noto Sans CJK SC, sans-serif" font-size="21" font-weight="400" fill="#34433D">Shoden® 单成分证据与三成分成品配方</text><text x="1332" y="727" font-family="Microsoft YaHei, PingFang SC, Noto Sans CJK SC, sans-serif" font-size="21" font-weight="400" fill="#34433D">证据分别判断</text><text x="72" y="871" font-family="Microsoft YaHei, PingFang SC, Noto Sans CJK SC, sans-serif" font-size="33" font-weight="700" fill="#1A2823">验收点</text><line x1="72" y1="890" x2="1728" y2="890" stroke="#1A2823" stroke-width="2"/><rect x="90" y="928" width="18" height="18" rx="0" fill="#0B6657"/><line x1="94" y1="937" x2="98" y2="941" stroke="#FBFAF5" stroke-width="3"/><line x1="98" y1="941" x2="105" y2="932" stroke="#FBFAF5" stroke-width="3"/><text x="124" y="942" font-family="Microsoft YaHei, PingFang SC, Noto Sans CJK SC, sans-serif" font-size="23" font-weight="400" fill="#34433D">不重复追问用户已提供的产品事实</text><rect x="910" y="928" width="18" height="18" rx="0" fill="#0B6657"/><line x1="914" y1="937" x2="918" y2="941" stroke="#FBFAF5" stroke-width="3"/><line x1="918" y1="941" x2="925" y2="932" stroke="#FBFAF5" stroke-width="3"/><text x="944" y="942" font-family="Microsoft YaHei, PingFang SC, Noto Sans CJK SC, sans-serif" font-size="23" font-weight="400" fill="#34433D">三个成分剂量和每两粒口径均被采用</text><rect x="90" y="990" width="18" height="18" rx="0" fill="#0B6657"/><line x1="94" y1="999" x2="98" y2="1003" stroke="#FBFAF5" stroke-width="3"/><line x1="98" y1="1003" x2="105" y2="994" stroke="#FBFAF5" stroke-width="3"/><text x="124" y="1004" font-family="Microsoft YaHei, PingFang SC, Noto Sans CJK SC, sans-serif" font-size="23" font-weight="400" fill="#34433D">品牌原料和标准化进入证据匹配</text><rect x="910" y="990" width="18" height="18" rx="0" fill="#0B6657"/><line x1="914" y1="999" x2="918" y2="1003" stroke="#FBFAF5" stroke-width="3"/><line x1="918" y1="1003" x2="925" y2="994" stroke="#FBFAF5" stroke-width="3"/><text x="944" y="1004" font-family="Microsoft YaHei, PingFang SC, Noto Sans CJK SC, sans-serif" font-size="23" font-weight="400" fill="#34433D">不把单一成分研究外推为整瓶复方已验证</text><line x1="72" y1="1050" x2="1728" y2="1050" stroke="#C9D0C8" stroke-width="2"/><rect x="72" y="1090" width="142" height="44" rx="0" fill="#E4F0EB"/><text x="88" y="1120" font-family="Microsoft YaHei, PingFang SC, Noto Sans CJK SC, sans-serif" font-size="22" font-weight="700" fill="#0B6657">边界说明</text><text x="72" y="1177" font-family="Microsoft YaHei, PingFang SC, Noto Sans CJK SC, sans-serif" font-size="23" font-weight="400" fill="#34433D">如果“35%”标签没有说明对应的具体化学组分，只保留这一项精确歧义；不能因此把已经明确的剂量、品牌原料或标准化信息全部降为未知。</text><line x1="72" y1="1268" x2="1728" y2="1268" stroke="#1A2823" stroke-width="2"/><text x="72" y="1303" font-family="Consolas, monospace" font-size="18" font-weight="400" fill="#65716C">evidence-based-nutrition-advisor V1.0.1 · ACCEPTANCE FILE</text></svg>