<svg xmlns="http://www.w3.org/2000/svg" width="1800" height="1320" viewBox="0 0 1800 1320" role="img" aria-label="行为验收用例 13：严格区分结构化试用与单病例随机交叉试验"><rect width="1800" height="1320" fill="#F4F1E9"/><rect x="0" y="0" width="1800" height="1320" rx="0" fill="#F4F1E9"/><text x="72" y="57" font-family="Consolas, monospace" font-size="19" font-weight="400" fill="#65716C">EVIDENCE REVIEW FILE · 13 / 14</text><text x="1500" y="57" font-family="Consolas, monospace" font-size="19" font-weight="400" fill="#65716C">UPDATED 2026-09-01</text><line x1="72" y1="78" x2="1728" y2="78" stroke="#1A2823" stroke-width="3"/><line x1="72" y1="86" x2="1728" y2="86" stroke="#C9D0C8" stroke-width="1"/><text x="72" y="162" font-family="Microsoft YaHei, PingFang SC, Noto Sans CJK SC, sans-serif" font-size="46" font-weight="700" fill="#1A2823">严格区分结构化试用与单病例随机交叉试验</text><text x="72" y="210" font-family="Microsoft YaHei, PingFang SC, Noto Sans CJK SC, sans-serif" font-size="26" font-weight="400" fill="#34433D">输入：我准备固定吃两周，前后比较一次，这算单病例随机交叉试验吗？</text><rect x="1450" y="112" width="278" height="54" rx="0" fill="#F8EEDC"/><text x="1510" y="149" font-family="Microsoft YaHei, PingFang SC, Noto Sans CJK SC, sans-serif" font-size="24" font-weight="700" fill="#9B4E18">边界通过</text><line x1="72" y1="250" x2="1728" y2="250" stroke="#C9D0C8" stroke-width="2"/><text x="72" y="311" font-family="Microsoft YaHei, PingFang SC, Noto Sans CJK SC, sans-serif" font-size="29" font-weight="700" fill="#9B4E18">单次前后比较属于结构化个体试用</text><text x="72" y="372" font-family="Microsoft YaHei, PingFang SC, Noto Sans CJK SC, sans-serif" font-size="30" font-weight="400" fill="#1A2823">固定两周并比较一次，只能称为结构化个体试用。单病例随机交叉试验需要同一人重复交叉周期，并合理处理随机次序、盲法</text><text x="72" y="412" font-family="Microsoft YaHei, PingFang SC, Noto Sans CJK SC, sans-serif" font-size="30" font-weight="400" fill="#1A2823">或安慰剂、洗脱和携带效应。</text><line x1="72" y1="450" x2="1728" y2="450" stroke="#C9D0C8" stroke-width="2"/><text x="72" y="525" font-family="Microsoft YaHei, PingFang SC, Noto Sans CJK SC, sans-serif" font-size="33" font-weight="700" fill="#1A2823">证据与流程轨迹</text><text x="392" y="521" font-family="Microsoft YaHei, PingFang SC, Noto Sans CJK SC, sans-serif" font-size="22" font-weight="400" fill="#65716C">每一项都能回到仓库文件</text><line x1="72" y1="552" x2="486" y2="552" stroke="#1A2823" stroke-width="2"/><line x1="72" y1="790" x2="486" y2="790" stroke="#C9D0C8" stroke-width="2"/><text x="90" y="593" font-family="Consolas, monospace" font-size="19" font-weight="400" fill="#0B6657">01</text><text x="90" y="640" font-family="Microsoft YaHei, PingFang SC, Noto Sans CJK SC, sans-serif" font-size="24" font-weight="700" fill="#1A2823">当前设计</text><text x="90" y="699" font-family="Microsoft YaHei, PingFang SC, Noto Sans CJK SC, sans-serif" font-size="21" font-weight="400" fill="#34433D">单次前后比较，缺少重复交叉和对照条件</text><line x1="486" y1="552" x2="900" y2="552" stroke="#1A2823" stroke-width="2"/><line x1="486" y1="790" x2="900" y2="790" stroke="#C9D0C8" stroke-width="2"/><line x1="486" y1="552" x2="486" y2="790" stroke="#C9D0C8" stroke-width="2"/><text x="504" y="593" font-family="Consolas, monospace" font-size="19" font-weight="400" fill="#0B6657">02</text><text x="504" y="640" font-family="Microsoft YaHei, PingFang SC, Noto Sans CJK SC, sans-serif" font-size="24" font-weight="700" fill="#1A2823">正确命名</text><text x="504" y="699" font-family="Microsoft YaHei, PingFang SC, Noto Sans CJK SC, sans-serif" font-size="21" font-weight="400" fill="#34433D">结构化个体试用</text><line x1="900" y1="552" x2="1314" y2="552" stroke="#1A2823" stroke-width="2"/><line x1="900" y1="790" x2="1314" y2="790" stroke="#C9D0C8" stroke-width="2"/><line x1="900" y1="552" x2="900" y2="790" stroke="#C9D0C8" stroke-width="2"/><text x="918" y="593" font-family="Consolas, monospace" font-size="19" font-weight="400" fill="#0B6657">03</text><text x="918" y="640" font-family="Microsoft YaHei, PingFang SC, Noto Sans CJK SC, sans-serif" font-size="24" font-weight="700" fill="#1A2823">严格试验要件</text><text x="918" y="699" font-family="Microsoft YaHei, PingFang SC, Noto Sans CJK SC, sans-serif" font-size="21" font-weight="400" fill="#34433D">重复交叉，并考虑随机次序、盲法或安慰</text><text x="918" y="727" font-family="Microsoft YaHei, PingFang SC, Noto Sans CJK SC, sans-serif" font-size="21" font-weight="400" fill="#34433D">剂与洗脱</text><line x1="1314" y1="552" x2="1728" y2="552" stroke="#1A2823" stroke-width="2"/><line x1="1314" y1="790" x2="1728" y2="790" stroke="#C9D0C8" stroke-width="2"/><line x1="1314" y1="552" x2="1314" y2="790" stroke="#C9D0C8" stroke-width="2"/><text x="1332" y="593" font-family="Consolas, monospace" font-size="19" font-weight="400" fill="#0B6657">04</text><text x="1332" y="640" font-family="Microsoft YaHei, PingFang SC, Noto Sans CJK SC, sans-serif" font-size="24" font-weight="700" fill="#1A2823">偏差提醒</text><text x="1332" y="699" font-family="Microsoft YaHei, PingFang SC, Noto Sans CJK SC, sans-serif" font-size="21" font-weight="400" fill="#34433D">自然波动、期待效应、回归均值和同期变</text><text x="1332" y="727" font-family="Microsoft YaHei, PingFang SC, Noto Sans CJK SC, sans-serif" font-size="21" font-weight="400" fill="#34433D">化仍可能解释结果</text><text x="72" y="871" font-family="Microsoft YaHei, PingFang SC, Noto Sans CJK SC, sans-serif" font-size="33" font-weight="700" fill="#1A2823">验收点</text><line x1="72" y1="890" x2="1728" y2="890" stroke="#1A2823" stroke-width="2"/><rect x="90" y="928" width="18" height="18" rx="0" fill="#0B6657"/><line x1="94" y1="937" x2="98" y2="941" stroke="#FBFAF5" stroke-width="3"/><line x1="98" y1="941" x2="105" y2="932" stroke="#FBFAF5" stroke-width="3"/><text x="124" y="942" font-family="Microsoft YaHei, PingFang SC, Noto Sans CJK SC, sans-serif" font-size="23" font-weight="400" fill="#34433D">单次前后比较不冒充严格试验</text><rect x="910" y="928" width="18" height="18" rx="0" fill="#0B6657"/><line x1="914" y1="937" x2="918" y2="941" stroke="#FBFAF5" stroke-width="3"/><line x1="918" y1="941" x2="925" y2="932" stroke="#FBFAF5" stroke-width="3"/><text x="944" y="942" font-family="Microsoft YaHei, PingFang SC, Noto Sans CJK SC, sans-serif" font-size="23" font-weight="400" fill="#34433D">列出重复交叉等关键设计要件</text><rect x="90" y="990" width="18" height="18" rx="0" fill="#0B6657"/><line x1="94" y1="999" x2="98" y2="1003" stroke="#FBFAF5" stroke-width="3"/><line x1="98" y1="1003" x2="105" y2="994" stroke="#FBFAF5" stroke-width="3"/><text x="124" y="1004" font-family="Microsoft YaHei, PingFang SC, Noto Sans CJK SC, sans-serif" font-size="23" font-weight="400" fill="#34433D">说明洗脱和携带效应</text><rect x="910" y="990" width="18" height="18" rx="0" fill="#0B6657"/><line x1="914" y1="999" x2="918" y2="1003" stroke="#FBFAF5" stroke-width="3"/><line x1="918" y1="1003" x2="925" y2="994" stroke="#FBFAF5" stroke-width="3"/><text x="944" y="1004" font-family="Microsoft YaHei, PingFang SC, Noto Sans CJK SC, sans-serif" font-size="23" font-weight="400" fill="#34433D">明示常见时间相关偏差</text><line x1="72" y1="1050" x2="1728" y2="1050" stroke="#C9D0C8" stroke-width="2"/><rect x="72" y="1090" width="142" height="44" rx="0" fill="#F8EEDC"/><text x="88" y="1120" font-family="Microsoft YaHei, PingFang SC, Noto Sans CJK SC, sans-serif" font-size="22" font-weight="700" fill="#9B4E18">边界说明</text><text x="72" y="1177" font-family="Microsoft YaHei, PingFang SC, Noto Sans CJK SC, sans-serif" font-size="23" font-weight="400" fill="#34433D">结构化试用能帮助个人记录变化，但因缺少对照与重复交叉，不能提供单病例随机交叉试验级的因果归因。</text><line x1="72" y1="1268" x2="1728" y2="1268" stroke="#1A2823" stroke-width="2"/><text x="72" y="1303" font-family="Consolas, monospace" font-size="18" font-weight="400" fill="#65716C">evidence-based-nutrition-advisor V1.0.1 · ACCEPTANCE FILE</text></svg>